<?xml version="1.0" encoding="utf-8"?>
<!-- Generator: Adobe Illustrator 16.0.3, SVG Export Plug-In . SVG Version: 6.00 Build 0)  -->
<!DOCTYPE svg PUBLIC "-//W3C//DTD SVG 1.1//EN" "http://www.w3.org/Graphics/SVG/1.1/DTD/svg11.dtd">
<svg version="1.1" id="Layer_1" xmlns="http://www.w3.org/2000/svg" xmlns:xlink="http://www.w3.org/1999/xlink" x="0px" y="0px"
	 width="256px" height="256px" viewBox="0 0 256 256" enable-background="new 0 0 256 256" xml:space="preserve">
<g>
	<path fill="#E41856" d="M147.842,99.474h-0.857v-5.37c0-6.168-5.803-11.186-11.967-11.186c-6.188,0-12,5.018-12,11.186v5.37h-0.391
		c-0.646,0-1.527,1.1-1.527,1.75v17.351c0,0.65,0.881,1.99,1.527,1.99h25.215c0.648,0,1.059-1.34,1.059-1.99v-17.351
		C148.9,100.573,148.49,99.474,147.842,99.474z M136.438,111.322v3.721c0,0.717-1.199,1.299-1.916,1.299
		c-0.719,0-1.918-0.582-1.918-1.299v-3.721c0-0.518-1.504-1.759-1.504-3.217c0-1.912,1.887-3.465,3.803-3.465
		c1.914,0,3.586,1.553,3.586,3.465C138.488,109.563,137.396,110.805,136.438,111.322z M141.232,99.474h-12.465v-5.37
		c0-3.791,2.457-6.865,6.25-6.865c3.789,0,6.215,3.074,6.215,6.865V99.474z"/>
	<g>
		<g>
			<g>
				<path fill="#232F5B" d="M159.295,68.482h-48.684c-1.922,0-3.479,1.557-3.479,3.478v60.223c0,1.92,1.557,3.477,3.479,3.477
					h48.684c1.92,0,3.477-1.557,3.477-3.477V71.96C162.771,70.039,161.215,68.482,159.295,68.482z M155.818,128.705h-41.73V75.438
					h41.73V128.705z"/>
				<g>
					<path fill="#232F5B" d="M180.16,191.66c-0.02-0.355-0.02-0.713,0-1.069c-0.291-5.471,3.91-10.144,9.381-10.433
						c0.357-0.018,0.715-0.018,1.07,0.002l-0.018-6.956V37.58c0-1.92-1.559-3.478-3.479-3.478h-38.252h-6.955h-20.865h-6.955H82.789
						c-9.254-0.351-17.037,6.866-17.387,16.118c-0.018,0.424-0.018,0.848,0,1.27v139.101c-0.35,9.254,6.865,17.039,16.117,17.389
						c0.424,0.016,0.848,0.016,1.27,0h35.377v-6.955H82.789c-5.762,0-10.434-4.671-10.434-10.434
						c0-5.761,4.672-10.431,10.434-10.431h93.473c-4.074,6.357-4.074,14.506,0,20.864h-30.1v6.955h44.432l0.018-6.955
						C185.139,201.323,180.461,197.132,180.16,191.66z M79.311,173.551c-2.482,0.474-4.846,1.437-6.955,2.835V51.49
						c-0.422-4.557,2.525-8.746,6.955-9.891V173.551z M86.268,173.204V41.058h97.371v132.146H86.268z"/>
					<path fill="#E41856" d="M152.289,201.024v-10.434c0-1.919-1.559-3.476-3.479-3.476h-27.82c-1.92,0-3.477,1.557-3.477,3.476
						v10.434v6.955v10.434c-0.014,1.92,1.537,3.485,3.459,3.495c0.543,0.004,1.084-0.122,1.572-0.367l12.355-6.196l12.355,6.196
						c1.717,0.859,3.807,0.163,4.666-1.555c0.244-0.49,0.369-1.029,0.367-1.573v-10.434V201.024z M145.334,212.787l-8.879-4.443
						c-0.98-0.489-2.129-0.489-3.109,0l-8.879,4.443v-18.718h20.867V212.787z"/>
				</g>
			</g>
		</g>
	</g>
</g>
</svg>
