<?xml version="1.0" encoding="utf-8"?>
<!-- Generator: Adobe Illustrator 16.0.3, SVG Export Plug-In . SVG Version: 6.00 Build 0)  -->
<!DOCTYPE svg PUBLIC "-//W3C//DTD SVG 1.1 Tiny//EN" "http://www.w3.org/Graphics/SVG/1.1/DTD/svg11-tiny.dtd">
<svg version="1.1" baseProfile="tiny" id="Layer_1" xmlns="http://www.w3.org/2000/svg" xmlns:xlink="http://www.w3.org/1999/xlink"
	 x="0px" y="0px" width="100px" height="76px" viewBox="0 0 100 76" xml:space="preserve">
<path fill="#FFFFFF" d="M44.341,42.193c-1.322,0-2.396,1.071-2.396,2.395v19.283c0,3.746-3.046,6.793-6.794,6.793H11.84
	c-3.745,0-6.793-3.047-6.793-6.793V42.828c0-3.746,3.048-6.791,6.793-6.791h17.152c1.325,0,2.396-1.073,2.396-2.398
	c0-1.319-1.07-2.393-2.396-2.393h-9.606v-3.251c0-3.698,3.006-6.703,6.7-6.703c0.979,0,1.771-0.793,1.771-1.769
	c0-0.977-0.792-1.77-1.771-1.77c-5.644,0-10.239,4.595-10.239,10.241v3.251h-2.579v-3.578c0-6.918,5.628-12.547,12.545-12.547
	c0.148,0,0.205,0.003,0.315,0.007l0.13,0.009c1.322,0.065,2.443-0.952,2.511-2.274c0.063-1.322-0.955-2.443-2.274-2.511
	l-0.117-0.006c-0.186-0.009-0.307-0.015-0.564-0.015c-9.56,0-17.336,7.775-17.336,17.337v4.077
	c-4.753,1.444-8.221,5.867-8.221,11.083v21.043c0,6.39,5.198,11.584,11.584,11.584h23.312c6.39,0,11.584-5.194,11.584-11.584V44.588
	C46.735,43.265,45.666,42.193,44.341,42.193"/>
<path fill="#E31957" d="M35.235,62.621c0,0-20.451-0.006-20.523-0.006c-0.891,0-1.616-0.723-1.616-1.613l0.012-15.021
	c0.051-0.576,0.378-2.137,2.482-2.146h12.887c1.13,0,2.045-0.918,2.045-2.046c0-1.134-0.915-2.05-2.045-2.05H13.867
	c-2.679,0-4.856,2.09-4.856,4.662v10.566c0,0.025,0.007,0.05,0.007,0.078v7.377c0,1.962,0.745,4.297,4.288,4.297h21.93
	c1.133,0,2.051-0.919,2.051-2.049C37.286,63.539,36.368,62.621,35.235,62.621"/>
<path fill="#E31957" d="M69.674,16.13c-0.245-1.298-1.495-2.153-2.792-1.909c-1.299,0.242-2.153,1.493-1.908,2.789
	c0.164,0.87,0.246,1.768,0.246,2.663c0,7.909-6.436,14.346-14.344,14.346c-7.914,0-14.347-6.437-14.347-14.346
	c0-7.912,6.433-14.345,14.347-14.345c1.873,0,3.695,0.354,5.41,1.056c1.225,0.498,2.618-0.089,3.118-1.312
	c0.497-1.225-0.091-2.618-1.312-3.117c-2.293-0.935-4.723-1.41-7.217-1.41c-10.546,0-19.125,8.581-19.125,19.128
	c0,10.543,8.579,19.126,19.125,19.126c10.545,0,19.126-8.583,19.126-19.126C70.002,18.48,69.891,17.289,69.674,16.13"/>
<path fill="#FFFFFF" d="M65.399,7.057c-0.94-0.81-2.355-0.706-3.162,0.233L48.343,23.403l-4.43-5.187
	c-0.804-0.94-2.218-1.054-3.161-0.248c-0.941,0.804-1.05,2.219-0.247,3.158l6.129,7.172c0.424,0.499,1.044,0.783,1.695,0.788h0.006
	c0.656,0,1.273-0.286,1.699-0.779l15.598-18.091C66.438,9.28,66.338,7.864,65.399,7.057"/>
<path fill="#FFFFFF" d="M55.155,51.433v-7.329h2.699c2.029,0,3.572,1.008,3.572,3.584c0,2.713-1.581,3.745-3.684,3.745H55.155z
	 M57.581,50.002c1.307,0,2.078-0.547,2.078-2.215c0-1.742-0.771-2.253-1.979-2.253h-0.834v4.468H57.581z"/>
<path fill="#FFFFFF" d="M67.177,49.69c0,0.386,0.161,0.522,0.422,0.522c0.137,0,0.249-0.037,0.361-0.086v1.206
	c-0.236,0.149-0.547,0.212-0.945,0.212c-0.734,0-1.183-0.287-1.369-0.908c-0.262,0.709-0.884,0.945-1.668,0.945
	c-1.021,0-1.691-0.598-1.691-1.58c0-1.281,1.032-1.979,3.248-1.854V47.6c0-0.496-0.213-0.797-0.673-0.797s-0.696,0.313-0.722,0.848
	l-1.655-0.312c0.087-1.22,1.12-1.792,2.438-1.792c1.432,0,2.254,0.621,2.254,1.904V49.69z M65.534,49.043
	c-1.17-0.037-1.581,0.273-1.581,0.785c0,0.336,0.236,0.572,0.635,0.572c0.435,0,0.946-0.211,0.946-0.771V49.043z"/>
<path fill="#FFFFFF" d="M72.788,51.209c-0.484,0.249-1.082,0.373-1.767,0.373c-1.145,0-1.892-0.535-1.892-1.854v-2.764h-0.834
	v-1.281h0.847v-1.219l1.668-0.199v1.418h1.704v1.281h-1.717v2.391c0,0.609,0.236,0.809,0.697,0.809c0.36,0,0.672-0.125,1.007-0.361
	L72.788,51.209z"/>
<path fill="#FFFFFF" d="M78.214,49.69c0,0.386,0.162,0.522,0.424,0.522c0.137,0,0.248-0.037,0.361-0.086v1.206
	c-0.237,0.149-0.548,0.212-0.946,0.212c-0.734,0-1.183-0.287-1.368-0.908c-0.262,0.709-0.885,0.945-1.668,0.945
	c-1.021,0-1.693-0.598-1.693-1.58c0-1.281,1.033-1.979,3.248-1.854V47.6c0-0.496-0.211-0.797-0.672-0.797
	c-0.46,0-0.696,0.313-0.721,0.848l-1.656-0.312c0.088-1.22,1.121-1.792,2.439-1.792c1.432,0,2.252,0.621,2.252,1.904V49.69z
	 M76.571,49.043c-1.169-0.037-1.58,0.273-1.58,0.785c0,0.336,0.236,0.572,0.635,0.572c0.436,0,0.945-0.211,0.945-0.771V49.043z"/>
<path fill="#FFFFFF" d="M55.155,61.674v-7.33h2.612c1.88,0,2.663,0.859,2.663,2.477c0,1.556-0.92,2.489-2.501,2.489h-1.083v2.364
	H55.155z M56.847,57.929h0.871c0.734,0,1.033-0.361,1.033-1.046c0-0.759-0.323-1.119-1.033-1.119h-0.871V57.929z"/>
<path fill="#FFFFFF" d="M65.372,57.643c-0.213-0.075-0.387-0.1-0.647-0.1c-0.659,0-1.469,0.323-1.469,1.506v2.625h-1.667v-5.749
	h1.443l0.199,1.581c0.248-0.996,0.809-1.793,2.326-1.705L65.372,57.643z"/>
<path fill="#FFFFFF" d="M67.325,53.199c0.586,0,1.033,0.336,1.033,0.971c0,0.61-0.447,0.946-1.033,0.946
	c-0.56,0-1.008-0.336-1.008-0.946C66.317,53.535,66.766,53.199,67.325,53.199z M68.159,55.925v5.749h-1.667v-5.749H68.159z"/>
<path fill="#FFFFFF" d="M68.968,55.925h1.768l0.783,2.613c0.287,0.946,0.387,1.866,0.387,1.866h0.049c0,0,0.125-0.933,0.412-1.854
	l0.834-2.626h1.704l-2.091,5.749h-1.829L68.968,55.925z"/>
<path fill="#FFFFFF" d="M80.069,59.932c0,0.386,0.161,0.523,0.423,0.523c0.136,0,0.248-0.038,0.36-0.088v1.207
	c-0.236,0.15-0.547,0.212-0.945,0.212c-0.734,0-1.183-0.286-1.369-0.909c-0.262,0.71-0.884,0.946-1.668,0.946
	c-1.02,0-1.691-0.597-1.691-1.581c0-1.281,1.032-1.978,3.248-1.854v-0.547c0-0.498-0.212-0.797-0.673-0.797
	c-0.46,0-0.696,0.312-0.722,0.846l-1.654-0.311c0.086-1.22,1.119-1.792,2.438-1.792c1.432,0,2.254,0.622,2.254,1.903V59.932z
	 M78.427,59.285c-1.17-0.037-1.582,0.273-1.582,0.783c0,0.336,0.237,0.572,0.635,0.572c0.437,0,0.947-0.211,0.947-0.771V59.285z"/>
<path fill="#FFFFFF" d="M86.677,60.131c-0.211,1.158-1.207,1.692-2.427,1.692c-1.667,0-2.774-1.083-2.774-2.999
	s1.107-3.036,2.787-3.036c1.369,0,2.24,0.734,2.327,1.892l-1.406,0.386c-0.087-0.61-0.374-0.971-0.934-0.971
	c-0.747,0-1.157,0.659-1.157,1.705c0,1.095,0.436,1.741,1.183,1.741c0.447,0,0.784-0.224,0.933-0.883L86.677,60.131z"/>
<path fill="#FFFFFF" d="M89.501,58.538c0.324,1.132,0.399,1.854,0.399,1.854h0.05c0,0,0.074-0.734,0.41-1.842l0.797-2.626h1.754
	l-2.277,6.259c-0.646,1.78-1.443,2.078-2.625,2.078c-0.336,0-0.723-0.062-1.033-0.137l0.249-1.468
	c0.212,0.124,0.473,0.198,0.759,0.198c0.523,0,0.847-0.223,1.083-0.857l-2.128-6.073h1.816L89.501,58.538z"/>
<path fill="#FFFFFF" d="M58.066,70.16l-0.821-2.202c-0.286-0.722-0.348-1.307-0.348-1.307h-0.051c0,0-0.012,0.474-0.162,1.331
	l-0.684,3.933h-1.357l1.282-7.329h1.444l1.02,2.974c0.236,0.697,0.286,1.108,0.286,1.108h0.05c0,0,0.125-0.398,0.61-1.084
	l2.091-2.998h1.443l-1.282,7.329h-1.356l0.685-3.933c0.149-0.857,0.3-1.331,0.3-1.331h-0.051c0,0-0.236,0.535-0.759,1.269
	l-1.568,2.24H58.066z"/>
<path fill="#FFFFFF" d="M68.321,70.396c-0.05,0.273-0.037,0.536,0.336,0.536c0.1,0,0.211-0.013,0.361-0.05l-0.188,0.971
	c-0.236,0.074-0.51,0.124-0.759,0.124c-0.722,0-1.095-0.337-1.108-1.021c-0.311,0.784-0.97,1.107-1.691,1.107
	c-1.17,0-1.917-0.871-1.917-2.352c0-1.967,1.083-3.684,2.775-3.684c0.81,0,1.345,0.336,1.456,1.107l0.323-0.971h1.157L68.321,70.396
	z M67.325,68.555c0.125-0.759-0.125-1.518-0.908-1.518c-1.045,0-1.717,1.157-1.717,2.563c0,0.821,0.336,1.443,1.045,1.443
	c0.76,0,1.244-0.61,1.406-1.53L67.325,68.555z"/>
<path fill="#FFFFFF" d="M75.004,70.396c-0.05,0.273-0.037,0.536,0.336,0.536c0.1,0,0.212-0.013,0.361-0.05l-0.199,0.971
	c-0.224,0.074-0.498,0.124-0.747,0.124c-0.934,0-1.256-0.522-1.107-1.419l0.424-2.389c0.111-0.623-0.051-1.045-0.697-1.045
	c-0.561,0-1.27,0.422-1.48,1.68l-0.549,3.11h-1.318l1.008-5.749h1.145l-0.037,1.17c0.386-0.846,0.959-1.307,1.842-1.307
	c0.896,0,1.48,0.51,1.48,1.406c0,0.162-0.012,0.299-0.049,0.535L75.004,70.396z"/>
<path fill="#FFFFFF" d="M81.538,70.396c-0.051,0.273-0.038,0.536,0.336,0.536c0.099,0,0.211-0.013,0.36-0.05l-0.187,0.971
	c-0.236,0.074-0.51,0.124-0.76,0.124c-0.721,0-1.095-0.337-1.107-1.021c-0.311,0.784-0.971,1.107-1.691,1.107
	c-1.17,0-1.916-0.871-1.916-2.352c0-1.967,1.082-3.684,2.773-3.684c0.809,0,1.345,0.336,1.456,1.107l0.324-0.971h1.157
	L81.538,70.396z M80.542,68.555c0.125-0.759-0.125-1.518-0.908-1.518c-1.045,0-1.717,1.157-1.717,2.563
	c0,0.821,0.335,1.443,1.045,1.443c0.759,0,1.244-0.61,1.406-1.53L80.542,68.555z"/>
<path fill="#FFFFFF" d="M87.946,72.027c-0.299,1.705-1.231,2.514-3.036,2.514c-1.431,0-2.19-0.598-2.413-1.494l1.057-0.584
	c0.087,0.635,0.635,1.082,1.406,1.082c1.032,0,1.493-0.609,1.692-1.605l0.187-1.007c-0.311,0.796-0.921,1.069-1.655,1.069
	c-1.182,0-1.929-0.858-1.929-2.352c0-1.954,1.07-3.621,2.813-3.621c0.784,0,1.319,0.336,1.432,1.107l0.336-0.971h1.145
	L87.946,72.027z M87.249,68.555c0.125-0.746-0.111-1.518-0.934-1.518c-1.069,0-1.729,1.119-1.729,2.525
	c0,0.822,0.336,1.432,1.045,1.432c0.783,0,1.282-0.547,1.443-1.506L87.249,68.555z"/>
<path fill="#FFFFFF" d="M93.247,70.174l1.232,0.298c-0.398,1.169-1.207,1.593-2.525,1.593c-1.494,0-2.352-0.971-2.352-2.464
	c0-2.315,1.455-3.571,2.948-3.571c1.556,0,2.202,0.996,2.202,2.065c0,0.423-0.074,0.847-0.248,1.194h-3.584
	c-0.112,0.908,0.249,1.768,1.145,1.768C92.751,71.057,93.073,70.77,93.247,70.174z M93.41,68.443c0.037-0.111,0.05-0.236,0.05-0.361
	c0-0.572-0.287-1.057-0.959-1.057c-0.783,0-1.244,0.658-1.431,1.418H93.41z"/>
<path fill="#FFFFFF" d="M99.421,67.598c-0.834-0.275-1.917,0.074-2.115,1.219l-0.549,3.099h-1.318l1.008-5.749h1.145l-0.074,1.418
	c0.386-1.008,1.281-1.717,2.228-1.518L99.421,67.598z"/>
</svg>
